<?xml version="1.0" encoding="UTF-8"?>
<svg width="16px" height="16px" viewBox="0 0 16 16" version="1.1" xmlns="http://www.w3.org/2000/svg" xmlns:xlink="http://www.w3.org/1999/xlink">
    <title>homehome</title>
    <g id="H5-首页" stroke="none" stroke-width="1" fill="none" fill-rule="evenodd">
        <g id="home" fill="#000000" fill-rule="nonzero">
            <rect id="矩形" opacity="0" x="0" y="0" width="45" height="45"></rect>
            <path d="M14.7890625,7.890625 L8.7515625,1.85625 L8.346875,1.4515625 C8.1546875,1.2609375 7.8453125,1.2609375 7.653125,1.4515625 L1.2109375,7.890625 C1.01875,8.0828125 0.915625,8.3375 0.917170003,8.609375 C0.9234375,9.159375 1.38125,9.5984375 1.93125,9.5984375 L2.5953125,9.5984375 L2.5953125,14.6875 L13.4046875,14.6875 L13.4046875,9.5984375 L14.0828125,9.5984375 C14.35,9.5984375 14.6015625,9.49375 14.790625,9.3046875 C14.9796875,9.115625 15.0828125,8.8640625 15.0828125,8.596875 C15.0828125,8.33125 14.978125,8.0796875 14.7890625,7.890625 Z M8.875,13.5625 L7.125,13.5625 L7.125,10.375 L8.875,10.375 L8.875,13.5625 Z M12.2796875,8.4734375 L12.2796875,13.5625 L9.875,13.5625 L9.875,10 C9.875,9.6546875 9.5953125,9.375 9.25,9.375 L6.75,9.375 C6.4046875,9.375 6.125,9.6546875 6.125,10 L6.125,13.5625 L3.7203125,13.5625 L3.7203125,8.4734375 L2.2203125,8.4734375 L8.0015625,2.696875 L8.3625,3.0578125 L13.78125,8.4734375 L12.2796875,8.4734375 Z" id="形状"></path>
        </g>
    </g>
</svg>
