<?xml version="1.0" encoding="UTF-8"?>
<svg width="160px" height="172px" viewBox="0 0 160 172" version="1.1" xmlns="http://www.w3.org/2000/svg" xmlns:xlink="http://www.w3.org/1999/xlink">
    <!-- Generator: Sketch 51.2 (57519) - http://www.bohemiancoding.com/sketch -->
    <title>Group 4</title>
    <desc>Created with Sketch.</desc>
    <defs></defs>
    <g id="Page-1" stroke="none" stroke-width="1" fill="none" fill-rule="evenodd">
        <g id="Delivery_Empty" transform="translate(-295.000000, -618.000000)">
            <g id="Group-4" transform="translate(294.000000, 618.000000)">
                <text id="暂无物流信息" font-family="PingFangSC-Light, PingFang SC" font-size="27" font-weight="300" fill="#999999">
                    <tspan x="0" y="169">暂无物流信息</tspan>
                </text>
                <g id="Group-2" transform="translate(21.000000, 0.000000)">
                    <g id="Group-3">
                        <rect id="Rectangle-3" fill="#FFFFFF" opacity="0" x="0" y="0" width="120" height="120"></rect>
                        <circle id="Oval-2" fill="#E6E6E6" cx="60" cy="60" r="60"></circle>
                        <g id="Icon" transform="translate(20.000000, 20.000000)">
                            <rect id="Rectangle-16" fill-opacity="0" fill="#F6F6F6" x="0" y="0" width="80" height="80"></rect>
                            <g id="Group-13" transform="translate(8.000000, 12.000000)">
                                <path d="M18.6666667,41.7885486 L18.6666667,6.66630286 C18.6666667,2.98440453 21.651435,-0.000363807588 25.3333333,-0.000363807588 L54.6666667,-0.000363807588 C58.348565,-0.000363807588 61.3333333,2.98440453 61.3333333,6.66630286 L61.3333333,44 C61.3333333,46.209139 59.5424723,48 57.3333333,48 L55.8893887,48 C55.254618,44.2163822 51.9639951,41.3333333 48,41.3333333 C44.0360049,41.3333333 40.745382,44.2163822 40.1106113,48 L23.8893887,48 C23.4043478,45.1088626 21.3686102,42.7435486 18.6666667,41.7885486 Z" id="Combined-Shape" stroke="#FFFFFF" stroke-width="2.5" opacity="0.98999995"></path>
                                <path d="M18.6666667,41.7885486 C17.8325895,41.4937446 16.9350278,41.3333333 16,41.3333333 C12.0360049,41.3333333 8.74538204,44.2163822 8.11061125,48 L4,48 C1.790861,48 2.04689834e-15,46.209139 1.77635684e-15,44 L0,14.6666667 C-4.50902501e-16,10.9847683 2.98476833,8 6.66666667,8 L18.6666667,8 L18.6666667,41.7885486 Z" id="Combined-Shape" stroke="#FFFFFF" stroke-width="2.5" opacity="0.98999995"></path>
                                <rect id="Rectangle-26" fill="#FFFFFF" x="5" y="25.3333333" width="13.3333333" height="2.5"></rect>
                                <circle id="Oval-10" stroke="#FFFFFF" stroke-width="2.5" opacity="0.98999995" cx="48" cy="49.3333333" r="8"></circle>
                                <circle id="Oval-11" stroke="#FFFFFF" stroke-width="1.33333333" fill="#FFFFFF" cx="48" cy="49.3333333" r="1.33333333"></circle>
                                <circle id="Oval-11" stroke="#FFFFFF" stroke-width="1.33333333" fill="#FFFFFF" cx="16" cy="49.3333333" r="1.33333333"></circle>
                                <circle id="Oval-10" stroke="#FFFFFF" stroke-width="2.5" opacity="0.98999995" cx="16" cy="49.3333333" r="8"></circle>
                                <rect id="Rectangle-54" fill="#FFFFFF" x="25.3333333" y="32" width="30.6666667" height="2.5"></rect>
                            </g>
                        </g>
                    </g>
                </g>
            </g>
        </g>
    </g>
</svg>